<?xml version="1.0" encoding="UTF-8"?>
<svg width="14px" height="24px" viewBox="0 0 14 24" version="1.1" xmlns="http://www.w3.org/2000/svg" xmlns:xlink="http://www.w3.org/1999/xlink">
    <!-- Generator: Sketch 44.1 (41455) - http://www.bohemiancoding.com/sketch -->
    <title>icon 手机</title>
    <desc>Created with Sketch.</desc>
    <defs></defs>
    <g id="Page-1" stroke="none" stroke-width="1" fill="none" fill-rule="evenodd" opacity="0.8">
        <g id="02-登录" transform="translate(-39.000000, -251.000000)" fill="#999999">
            <g id="输入框" transform="translate(36.000000, 250.000000)">
                <g id="手机号码" transform="translate(3.000000, 0.000000)">
                    <g id="icon-手机" transform="translate(0.000000, 1.000000)">
                        <g id="图层_1">
                            <g id="Group">
                                <path d="M10.336,23.3333333 L3.264,23.3333333 C1.496,23.3333333 -2.66453526e-15,21.8666667 -2.66453526e-15,20.1333333 L-2.66453526e-15,3.86666667 C-2.66453526e-15,2.13333333 1.496,0.666666667 3.264,0.666666667 L10.336,0.666666667 C12.104,0.666666667 13.6,2.13333333 13.6,3.86666667 L13.6,20.1333333 C13.6,21.8666667 12.104,23.3333333 10.336,23.3333333 L10.336,23.3333333 Z M3.264,2 C2.176,2 1.36,2.8 1.36,3.86666667 L1.36,20.1333333 C1.36,21.2 2.176,22 3.264,22 L10.336,22 C11.424,22 12.24,21.2 12.24,20.1333333 L12.24,3.86666667 C12.24,2.8 11.424,2 10.336,2 L3.264,2 L3.264,2 Z" id="Shape"></path>
                                <path d="M10.472,18 L3.128,18 C2.72,18 2.448,17.7333333 2.448,17.3333333 L2.448,4 C2.448,3.6 2.72,3.33333333 3.128,3.33333333 L10.472,3.33333333 C10.88,3.33333333 11.152,3.6 11.152,4 L11.152,17.3333333 C11.152,17.7333333 10.88,18 10.472,18 L10.472,18 Z M3.808,16.6666667 L9.792,16.6666667 L9.792,4.66666667 L3.808,4.66666667 L3.808,16.6666667 L3.808,16.6666667 Z" id="Shape"></path>
                                <path d="M6.8,21.3333333 C6.392,21.3333333 6.12,21.2 5.848,20.9333333 C5.576,20.6666667 5.44,20.4 5.44,20 C5.44,19.6 5.576,19.3333333 5.848,19.0666667 C6.392,18.5333333 7.208,18.5333333 7.752,19.0666667 C8.024,19.3333333 8.16,19.6 8.16,20 C8.16,20.4 8.024,20.6666667 7.752,20.9333333 C7.48,21.2 7.208,21.3333333 6.8,21.3333333 L6.8,21.3333333 Z" id="Shape"></path>
                            </g>
                        </g>
                    </g>
                </g>
            </g>
        </g>
    </g>
</svg>