<?xml version="1.0" encoding="UTF-8"?>
<svg width="20px" height="21px" viewBox="0 0 20 21" version="1.1" xmlns="http://www.w3.org/2000/svg" xmlns:xlink="http://www.w3.org/1999/xlink">
    <!-- Generator: Sketch 44.1 (41455) - http://www.bohemiancoding.com/sketch -->
    <title>icon 密码</title>
    <desc>Created with Sketch.</desc>
    <defs></defs>
    <g id="Page-1" stroke="none" stroke-width="1" fill="none" fill-rule="evenodd" opacity="0.8">
        <g id="02-登录" transform="translate(-36.000000, -316.000000)" fill="#999999">
            <g id="输入框" transform="translate(36.000000, 250.000000)">
                <g id="登录密码" transform="translate(0.000000, 66.000000)">
                    <g id="icon-密码">
                        <g id="Group">
                            <path d="M17.375,20.5 L2.625,20.5 C1.5,20.5 0.625,19.625 0.625,18.5 L0.625,10 C0.625,8.875 1.5,8 2.625,8 L17.375,8 C18.5,8 19.375,8.875 19.375,10 L19.375,18.5 C19.375,19.625 18.5,20.5 17.375,20.5 L17.375,20.5 Z M2.625,9.25 C2.25,9.25 1.875,9.625 1.875,10 L1.875,18.5 C1.875,18.875 2.25,19.25 2.625,19.25 L17.375,19.25 C17.75,19.25 18.125,18.875 18.125,18.5 L18.125,10 C18.125,9.625 17.75,9.25 17.375,9.25 L2.625,9.25 L2.625,9.25 Z" id="Shape"></path>
                            <path d="M14.375,8.625 L14.375,5.75 C14.375,3.375 12.375,1.375 10,1.375 C7.625,1.375 5.625,3.375 5.625,5.75 L5.625,8.625 L4.375,8.625 L4.375,5.75 C4.375,2.625 6.875,0.125 10,0.125 C13.125,0.125 15.625,2.625 15.625,5.75 L15.625,8.625 L14.375,8.625 L14.375,8.625 Z" id="Shape"></path>
                            <g transform="translate(8.750000, 11.500000)" id="Shape">
                                <path d="M1.25,4.75 C0.875,4.75 0.625,4.5 0.625,4.125 L0.625,1.25 C0.625,0.875 0.875,0.625 1.25,0.625 C1.625,0.625 1.875,0.875 1.875,1.25 L1.875,4.125 C1.875,4.5 1.625,4.75 1.25,4.75 L1.25,4.75 Z"></path>
                                <path d="M1.25,5.375 C0.875,5.375 0.625,5.25 0.375,5 C0.125,4.75 0,4.5 0,4.125 C0,3.75 0.125,3.5 0.375,3.25 C0.875,2.75 1.625,2.75 2.125,3.25 C2.375,3.5 2.5,3.75 2.5,4.125 C2.5,4.5 2.375,4.75 2.125,5 C1.875,5.25 1.625,5.375 1.25,5.375 L1.25,5.375 Z"></path>
                            </g>
                        </g>
                    </g>
                </g>
            </g>
        </g>
    </g>
</svg>